<svg id="Layer_1" data-name="Layer 1" xmlns="http://www.w3.org/2000/svg" xmlns:xlink="http://www.w3.org/1999/xlink" viewBox="0 0 282.74 344.59" width="406" height="306" class="illustration styles_illustrationTablet__1DWOa"><defs><linearGradient id="linear-gradient" x1="193.04" y1="109.24" x2="197.77" y2="66.78" gradientUnits="userSpaceOnUse"><stop offset="0.02" stop-color="#fff" stop-opacity="0"></stop><stop offset="0.39" stop-color="#fff" stop-opacity="0.39"></stop><stop offset="1" stop-color="#fff"></stop></linearGradient><linearGradient id="linear-gradient-2" x1="196.02" y1="60.03" x2="193.32" y2="92.24" gradientUnits="userSpaceOnUse"><stop offset="0.01"></stop><stop offset="0.83" stop-opacity="0.07"></stop><stop offset="1" stop-opacity="0"></stop></linearGradient><linearGradient id="linear-gradient-3" x1="76.28" y1="148.66" x2="185.74" y2="174" xlink:href="#linear-gradient-2"></linearGradient><linearGradient id="linear-gradient-4" x1="6625.86" y1="142.87" x2="6759.56" y2="173.82" gradientTransform="matrix(-1, 0, 0, 1, 6956.03, 0)" xlink:href="#linear-gradient-2"></linearGradient><linearGradient id="linear-gradient-5" x1="203.02" y1="50.51" x2="209.52" y2="50.51" xlink:href="#linear-gradient-2"></linearGradient><linearGradient id="linear-gradient-6" x1="187.63" y1="42.04" x2="206.42" y2="42.04" xlink:href="#linear-gradient-2"></linearGradient><linearGradient id="linear-gradient-7" x1="179.87" y1="116.09" x2="179.53" y2="84.45" xlink:href="#linear-gradient"></linearGradient><linearGradient id="linear-gradient-8" x1="175.67" y1="114.93" x2="177.84" y2="114.93" gradientTransform="translate(274.29 -71.99) rotate(84.52)" xlink:href="#linear-gradient-2"></linearGradient><linearGradient id="linear-gradient-9" x1="179.95" y1="116.22" x2="182.12" y2="116.22" gradientTransform="translate(279.45 -75.08) rotate(84.52)" xlink:href="#linear-gradient-2"></linearGradient><linearGradient id="linear-gradient-10" x1="137.56" y1="107.02" x2="135.81" y2="115.53" xlink:href="#linear-gradient-2"></linearGradient><linearGradient id="linear-gradient-11" x1="206.2" y1="106.4" x2="204.93" y2="120.93" xlink:href="#linear-gradient-2"></linearGradient><linearGradient id="linear-gradient-12" x1="190.74" y1="82.77" x2="188.53" y2="107.51" xlink:href="#linear-gradient"></linearGradient><linearGradient id="linear-gradient-13" x1="198.67" y1="83.48" x2="196.46" y2="108.22" xlink:href="#linear-gradient"></linearGradient></defs><title>Doctor</title><path d="M340.62,291.73c-9.06,13.8-21.75,24.91-35.67,33.83h0l-2.6,1.64C292,333.54,281,338.86,269.17,341.66c-12.25,2.9-25,3-37.56,3.14-23.1.2-46.3-.27-69.32,1.4-18.19,1.33-34-8.62-46-21.88-.5-.55-1-1.12-1.47-1.68-10.73-12.43-18.15-27.36-25.12-42.24-8.59-18.32-16.8-37.31-18.42-57.46-1.33-16.53,1.83-33.08,2.08-49.66.31-20.59-3.87-41.22-1.54-61.69,2-17.91,9-35,18-50.62,8-13.95,17.72-27.11,30.23-37.19A101.73,101.73,0,0,1,170.82,2.57C213.3-2.9,258.06,19,279.78,56c20.76,35.31,20.54,79.54,38.87,116.17,11.68,23.34,30.9,43.83,34.47,69.68C355.52,259.17,350.25,277.08,340.62,291.73Z" transform="translate(-70.96 -1.73)" fill="#8becd0" opacity="0.18" style="isolation: isolate;"></path><path d="M304.94,325.56l-2.6,1.64C292,333.54,281,338.86,269.17,341.66c-12.25,2.9-25,3-37.56,3.14-23.1.2-46.3-.27-69.32,1.4-18.19,1.33-34-8.62-46-21.88-.5-.55-1-1.12-1.47-1.68,21.23-6.66,54.09-10.94,91-10.94C247.81,311.7,284.61,317.25,304.94,325.56Z" transform="translate(-70.96 -1.73)" fill="#8becd0" opacity="0.54" style="isolation: isolate;"></path><path d="M219.6,304.13l1,9.88s-3.78,5.72-8.72,6.09-6.62-2-6.62-2l.81-14.53" transform="translate(-70.96 -1.73)" fill="#f7ad7e"></path><path d="M205.21,318.1l.33-5.83,14.47-3.9.54,5.64s-3.78,5.72-8.72,6.09S205.21,318.1,205.21,318.1Z" transform="translate(-70.96 -1.73)" fill="#fff"></path><path d="M173.46,302l-1.06,13.28s3.88,5.88,8.95,6.26,6.8-2.06,6.8-2.06l-.83-14.92" transform="translate(-70.96 -1.73)" fill="#f7ad7e"></path><path d="M188.15,319.52l-.33-6-14.87-4-.55,5.78s3.88,5.88,8.95,6.26S188.15,319.52,188.15,319.52Z" transform="translate(-70.96 -1.73)" fill="#fff"></path><path d="M167.68,175.46s-.89,14.46,1.33,57.32,2.88,69.48,2.88,69.48,2.19,5.08,9.57,5.18,7.88-3,7.88-3l7.21-109.88,7.53,112.13s9.66,1.74,16.57-2.08c4.9-2.72-1.09-129.28-1.09-129.28S195.88,188.34,167.68,175.46Z" transform="translate(-70.96 -1.73)" fill="#3f3d56"></path><path d="M185.52,83.38S165.9,92.86,165.45,96s2.23,79.49,2.23,79.49,6.36,8.26,25.87,8.26c20,0,25.13-5.71,26-8.37s4.08-78.79,3.64-82-18.54-9.87-18.54-9.87Z" transform="translate(-70.96 -1.73)" fill="#f3fcff"></path><path d="M207.75,112.85,206,112.6c.64-4.59,1.85-13.76,1.85-15.58s-.93-9.79-5.26-13.75A8.75,8.75,0,0,0,195.62,81c-10.45.92-13.07,7.83-13.24,8.31a66.46,66.46,0,0,0-1.48,7.86h-1.8a66.94,66.94,0,0,1,1.54-8.32l0-.06c.11-.35,2.85-8.53,14.8-9.58a10.47,10.47,0,0,1,8.31,2.71c4.85,4.45,5.84,13,5.84,15.08C209.61,99.42,207.82,112.31,207.75,112.85Z" transform="translate(-70.96 -1.73)" fill="#8becd0"></path><path d="M207.75,112.85,206,112.6c.64-4.59,1.85-13.76,1.85-15.58s-.93-9.79-5.26-13.75A8.75,8.75,0,0,0,195.62,81c-10.45.92-13.07,7.83-13.24,8.31a66.46,66.46,0,0,0-1.48,7.86h-1.8a66.94,66.94,0,0,1,1.54-8.32l0-.06c.11-.35,2.85-8.53,14.8-9.58a10.47,10.47,0,0,1,8.31,2.71c4.85,4.45,5.84,13,5.84,15.08C209.61,99.42,207.82,112.31,207.75,112.85Z" transform="translate(-70.96 -1.73)" fill="url(#linear-gradient)"></path><polygon points="136.06 176.54 136.54 221.47 156.97 219.44 149.13 148.16 136.06 176.54" fill="#f3fcff"></polygon><path d="M186.7,83.34,186.46,185a28.06,28.06,0,0,0,20.73-1.8L201.9,83.34l-7.66,1.8Z" transform="translate(-70.96 -1.73)" fill="#8becd0"></path><path d="M186.7,83.34,186.46,185a28.06,28.06,0,0,0,20.73-1.8L201.9,83.34l-7.66,1.8Z" transform="translate(-70.96 -1.73)" fill="#8becd0"></path><path d="M186.83,71.86s-.12,6.85-.06,11.86c.06,3.74,1.15,10.91,7.91,10.91s7.55-9.14,7.43-10.91a55.66,55.66,0,0,0,0-8C201.67,71.4,187.21,68.83,186.83,71.86Z" transform="translate(-70.96 -1.73)" fill="#f7ad7e"></path><path d="M186.87,79.73s.78,8.67,6.3,7.55a10.82,10.82,0,0,0,8.79-8.9,5.53,5.53,0,0,0-1.69-5.29Z" transform="translate(-70.96 -1.73)" fill="url(#linear-gradient-2)"></path><path d="M205.66,72.39c-2.13,6.26-7.85,10.14-11.86,10.51s-8.39-3.29-10.15-7.85-2-22.07-2-22.07a7.17,7.17,0,0,1,.67-3.38c.56-1.27,1.58-5.1,3-6.21a35.45,35.45,0,0,1,19.37.42c1.33,1.16,2,4.86,2.3,5.54a5.85,5.85,0,0,1,.27,1.28C207.77,54.86,207.53,66.91,205.66,72.39Z" transform="translate(-70.96 -1.73)" fill="#f7ad7e"></path><path d="M181.47,57.66a2,2,0,0,0-2.64.43,3,3,0,0,0-.29,1.64,12.06,12.06,0,0,0,.14,1.7,8.18,8.18,0,0,0,2.18,4,3.48,3.48,0,0,0,.89.74,1.4,1.4,0,0,0,1.13.11,1.94,1.94,0,0,0,1-1.61,8.44,8.44,0,0,0-.37-4.17A5.54,5.54,0,0,0,181.47,57.66Z" transform="translate(-70.96 -1.73)" fill="#f7ad7e"></path><path d="M208,57.44a2,2,0,0,1,2.64.42,2.89,2.89,0,0,1,.29,1.65,9.48,9.48,0,0,1-.14,1.69,8.17,8.17,0,0,1-2.18,4,3.51,3.51,0,0,1-.89.74,1.4,1.4,0,0,1-1.13.11,1.93,1.93,0,0,1-1-1.61,8.48,8.48,0,0,1,.36-4.18A5.47,5.47,0,0,1,208,57.44Z" transform="translate(-70.96 -1.73)" fill="#f7ad7e"></path><polygon points="115.45 176.54 114.78 221.47 85.72 219.44 96.87 148.16 115.45 176.54" fill="#f3fcff"></polygon><path d="M166.26,136.27l8.56-18.7-4.28,104-13.86-.34S167.55,166.05,166.26,136.27Z" transform="translate(-70.96 -1.73)" fill="url(#linear-gradient-3)"></path><path d="M221.72,134l-8.56-18.69-.28,107.21,15.05-1.35S220.43,163.8,221.72,134Z" transform="translate(-70.96 -1.73)" fill="url(#linear-gradient-4)"></path><path d="M165.86,95.24S151.24,130.82,149.58,137s3.5,24.83,5.53,21.63c6.23-9.84,12.32-25.21,12.32-25.21Z" transform="translate(-70.96 -1.73)" fill="#f3fcff"></path><path d="M221.94,91.27s14.61,35.59,16.28,41.76-3.51,24.83-5.53,21.63c-6.24-9.84-12.32-25.21-12.32-25.21Z" transform="translate(-70.96 -1.73)" fill="#f3fcff"></path><path d="M224.93,139.76c-.41.42-12.05,35.25-12.05,35.25s7.52,0,13.06.45c0,0,11.43-26.63,11.9-29s3.94-15.26-3.79-16.81S224.93,139.76,224.93,139.76Z" transform="translate(-70.96 -1.73)" fill="#f3fcff"></path><path d="M162.87,143.73c.4.42,12,35.25,12,35.25s-7.53,0-13.07.45c0,0-11.42-26.63-11.9-29s-3.93-15.26,3.79-16.81S162.87,143.73,162.87,143.73Z" transform="translate(-70.96 -1.73)" fill="#f3fcff"></path><path d="M207.42,58.1c0-.28-.1-.56-.16-.84a25.6,25.6,0,0,0-1.49-4.37c-1-2.39-1.93-4.77-2.89-7.16-.15-.38-.31-.75-.46-1.13l0-.07a.1.1,0,0,1,0,.1,1.38,1.38,0,0,1-.57.36,27.89,27.89,0,0,1-4,1.17,13.1,13.1,0,0,1-5.32-.38c-1.49-.43-3-1.7-4.58-1.63l-.24,0a3.54,3.54,0,0,0-3.33,2.94,43.43,43.43,0,0,1-2.48,11.33c-1.7-1.15-1.88-3.43-1.89-5.4s0-4.08,0-6.13a8,8,0,0,1,.33-2.93,3,3,0,0,1,2.16-2c.82-.14,1.76.13,2.46-.32a2.6,2.6,0,0,0,.85-1.89,7.7,7.7,0,0,1,1.55-4c1.94-2.29,5.64-2.44,8.57-1.48s5.46,2.77,8.33,3.88c2,.75,4.18,1.26,5.43,2.86A6.59,6.59,0,0,1,210.68,44,18.55,18.55,0,0,1,207.42,58.1Z" transform="translate(-70.96 -1.73)" fill="#3f3d56"></path><path d="M201.8,45c.19-.13.37-.24.57-.36A1.38,1.38,0,0,1,201.8,45Z" transform="translate(-70.96 -1.73)" fill="none"></path><path d="M208.05,56.18a3.13,3.13,0,0,1-.79,1.08,25.6,25.6,0,0,0-1.49-4.37q-1.67-4.14-3.35-8.29a6.25,6.25,0,0,1,2.12-.79,3.49,3.49,0,0,1,2.83.73,4.26,4.26,0,0,1,1.13,2.12,17.05,17.05,0,0,1,.41,4A11.1,11.1,0,0,1,208.05,56.18Z" transform="translate(-70.96 -1.73)" fill="url(#linear-gradient-5)"></path><path d="M206.42,43.41a12.24,12.24,0,0,0-3.54,2.32c-.15-.38-.31-.75-.46-1.13l0-.07a.1.1,0,0,1,0,.1,1.38,1.38,0,0,1-.57.36,27.89,27.89,0,0,1-4,1.17,13.1,13.1,0,0,1-5.32-.38c-1.49-.43-3-1.7-4.58-1.63l-.24,0c.08-.24.18-.5.27-.78.76-2.46,1.26-4.59,4.08-5.36a7.71,7.71,0,0,1,5,.46c1.51.64,2.9,1.64,4.52,1.9a15.44,15.44,0,0,1,2.9.36A3.2,3.2,0,0,1,206.42,43.41Z" transform="translate(-70.96 -1.73)" fill="url(#linear-gradient-6)"></path><polygon points="93.58 177.55 94.93 183.29 105.23 182.79 102.53 177.21 93.58 177.55" fill="#f7ad7e"></polygon><polygon points="143.83 173.16 140.79 180.59 150.59 181.16 151.83 173.5 143.83 173.16" fill="#f7ad7e"></polygon><rect x="92.82" y="182.62" width="15.88" height="2.82" fill="#f3fcff"></rect><rect x="137.86" y="180.64" width="14.6" height="2.65" fill="#f3fcff"></rect><path d="M185.59,117.12h-4.35v-1.8h2.84c.74-4.77,1.36-15.27-3.18-17.07a2.19,2.19,0,0,0-2.63.67c-3.06,3.27-3.56,13.14-3.08,14.38a2.23,2.23,0,0,0,1.75.68l.27,1.78a4,4,0,0,1-3.4-1.3c-1.37-1.51-.35-11.85,2.49-15.95,1.41-2,3.28-2.72,5.27-1.93,7.13,2.83,4.28,19.11,4.15,19.8Zm-10.38-3.78Z" transform="translate(-70.96 -1.73)" fill="#8becd0"></path><path d="M185.59,117.12h-4.35v-1.8h2.84c.74-4.77,1.36-15.27-3.18-17.07a2.19,2.19,0,0,0-2.63.67c-3.06,3.27-3.56,13.14-3.08,14.38a2.23,2.23,0,0,0,1.75.68l.27,1.78a4,4,0,0,1-3.4-1.3c-1.37-1.51-.35-11.85,2.49-15.95,1.41-2,3.28-2.72,5.27-1.93,7.13,2.83,4.28,19.11,4.15,19.8Zm-10.38-3.78Z" transform="translate(-70.96 -1.73)" fill="url(#linear-gradient-7)"></path><ellipse cx="176.76" cy="114.93" rx="1.45" ry="1.08" transform="translate(-25.48 278.18) rotate(-84.52)" fill="#8becd0"></ellipse><ellipse cx="181.04" cy="116.22" rx="1.45" ry="1.08" transform="translate(-22.9 283.61) rotate(-84.52)" fill="#8becd0"></ellipse><ellipse cx="176.76" cy="114.93" rx="1.45" ry="1.08" transform="translate(-25.48 278.18) rotate(-84.52)" fill="url(#linear-gradient-8)"></ellipse><ellipse cx="181.04" cy="116.22" rx="1.45" ry="1.08" transform="translate(-22.9 283.61) rotate(-84.52)" fill="url(#linear-gradient-9)"></ellipse><circle cx="136.12" cy="112.21" r="3.27" fill="#8becd0"></circle><circle cx="136.65" cy="111.47" r="2.32" fill="url(#linear-gradient-10)"></circle><circle cx="136.77" cy="111.4" r="1.42" fill="#f3fcff"></circle><path d="M205.55,114.25l-1.44,1.06s.8,1.39,1.61,1.6l1-1.6S206,115.31,205.55,114.25Z" transform="translate(-70.96 -1.73)" fill="url(#linear-gradient-11)"></path><path d="M234.17,323c.82.5,1.77,1.23,1.71,2.28a2.45,2.45,0,0,1-.52,1.25c-1.85,2.53-12,1.74-14.9,1.71-6.59-.07-6.32.34-12.82-.89a3.08,3.08,0,0,1-1.46-.56,3.72,3.72,0,0,1-1-2.48,25.19,25.19,0,0,1,.15-6.49.82.82,0,0,1,.27-.59.62.62,0,0,1,.53,0,17.07,17.07,0,0,0,3.2,1,8.05,8.05,0,0,0,5.15-1.18,17.39,17.39,0,0,0,2.26-1.59c.49-.39,1.45-1.63,2.05-1.69s1.72.94,2.29,1.28l2.71,1.64Z" transform="translate(-70.96 -1.73)" fill="#3f3d56"></path><path d="M180.86,318.08a18.13,18.13,0,0,1-6.54-3.76,2.42,2.42,0,0,0-1.31-.68,2,2,0,0,0-.72.14A51.9,51.9,0,0,0,159.4,320c-1.06.69-2.23,1.71-2.14,3.09.1,1.6,1.76,2.36,3.15,2.71A64.48,64.48,0,0,0,185,327.17a3.85,3.85,0,0,0,2-.71,4.29,4.29,0,0,0,1.14-2.62c.35-2.13.5-5.1-.41-7.06A8.31,8.31,0,0,1,180.86,318.08Z" transform="translate(-70.96 -1.73)" fill="#3f3d56"></path><path d="M187.05,84.52s4,8.77,6.19,9.88l-5,3.32-1.48-8.49Z" transform="translate(-70.96 -1.73)" fill="#8becd0"></path><path d="M202,84.61s-3.56,9.6-8.73,9.79l5.29,4.86,3.81-7Z" transform="translate(-70.96 -1.73)" fill="#8becd0"></path><path d="M187.05,84.52s4,8.77,6.19,9.88l-5,3.32-1.48-8.49Z" transform="translate(-70.96 -1.73)" fill="url(#linear-gradient-12)"></path><path d="M202,84.61s-3.56,9.6-8.73,9.79l5.29,4.86,3.81-7Z" transform="translate(-70.96 -1.73)" fill="url(#linear-gradient-13)"></path><polygon points="119.23 94.42 120.98 97.37 119.69 160.05 125.23 167.81 128.92 154.88 123.75 97.46 125.23 95.25 122.28 92.66 119.23 94.42" fill="#3f3d56"></polygon></svg>